<mxfile host="Electron" modified="2024-10-18T09:32:46.640Z" agent="Mozilla/5.0 (Windows NT 10.0; Win64; x64) AppleWebKit/537.36 (KHTML, like Gecko) draw.io/21.7.5 Chrome/114.0.5735.289 Electron/25.8.1 Safari/537.36" etag="0Nt4OjEWy8mwFlKnPSk7" version="21.7.5" type="device">
  <diagram name="Página-1" id="sR8-QovBfD7BfxSIZVUn">
    <mxGraphModel dx="3695" dy="2841" grid="1" gridSize="10" guides="1" tooltips="1" connect="1" arrows="1" fold="1" page="1" pageScale="1" pageWidth="827" pageHeight="1169" math="0" shadow="0">
      <root>
        <mxCell id="0" />
        <mxCell id="1" parent="0" />
        <mxCell id="aDRMnpy6ZHcxraBTH3zv-2" value="La gestión de la preveción&lt;br style=&quot;font-size: 12px;&quot;&gt;de riesgos laborales&amp;nbsp;&amp;nbsp;" style="rounded=1;whiteSpace=wrap;html=1;fontSize=12;" parent="1" vertex="1">
          <mxGeometry x="360" y="460" width="120" height="60" as="geometry" />
        </mxCell>
        <mxCell id="aDRMnpy6ZHcxraBTH3zv-3" value="La gestión de la prevención en la empresa" style="rounded=1;whiteSpace=wrap;html=1;fontSize=12;" parent="1" vertex="1">
          <mxGeometry y="460" width="120" height="60" as="geometry" />
        </mxCell>
        <mxCell id="aDRMnpy6ZHcxraBTH3zv-14" value="La participación en la prevención de riesgos" style="rounded=1;whiteSpace=wrap;html=1;fontSize=12;" parent="1" vertex="1">
          <mxGeometry x="707" y="460" width="120" height="60" as="geometry" />
        </mxCell>
        <mxCell id="aDRMnpy6ZHcxraBTH3zv-15" value="" style="shape=flexArrow;endArrow=classic;html=1;rounded=0;exitX=0;exitY=0.5;exitDx=0;exitDy=0;entryX=1;entryY=0.5;entryDx=0;entryDy=0;fontSize=12;" parent="1" source="aDRMnpy6ZHcxraBTH3zv-2" target="aDRMnpy6ZHcxraBTH3zv-3" edge="1">
          <mxGeometry width="50" height="50" relative="1" as="geometry">
            <mxPoint x="390" y="520" as="sourcePoint" />
            <mxPoint x="440" y="470" as="targetPoint" />
          </mxGeometry>
        </mxCell>
        <mxCell id="aDRMnpy6ZHcxraBTH3zv-16" value="" style="shape=flexArrow;endArrow=classic;html=1;rounded=0;exitX=1;exitY=0.5;exitDx=0;exitDy=0;entryX=0;entryY=0.5;entryDx=0;entryDy=0;fontSize=12;" parent="1" source="aDRMnpy6ZHcxraBTH3zv-2" target="aDRMnpy6ZHcxraBTH3zv-14" edge="1">
          <mxGeometry width="50" height="50" relative="1" as="geometry">
            <mxPoint x="420" y="480" as="sourcePoint" />
            <mxPoint x="620" y="490" as="targetPoint" />
          </mxGeometry>
        </mxCell>
        <mxCell id="aDRMnpy6ZHcxraBTH3zv-18" value="" style="shape=flexArrow;endArrow=classic;html=1;rounded=0;exitX=0.5;exitY=0;exitDx=0;exitDy=0;fontSize=12;" parent="1" source="aDRMnpy6ZHcxraBTH3zv-2" edge="1">
          <mxGeometry width="50" height="50" relative="1" as="geometry">
            <mxPoint x="430" y="440" as="sourcePoint" />
            <mxPoint x="420" y="310" as="targetPoint" />
          </mxGeometry>
        </mxCell>
        <mxCell id="aDRMnpy6ZHcxraBTH3zv-19" value="" style="shape=flexArrow;endArrow=classic;html=1;rounded=0;exitX=0.5;exitY=0;exitDx=0;exitDy=0;width=3.9080459770114944;endSize=3.9724137931034487;endWidth=9.906196327123794;fontSize=12;" parent="1" source="aDRMnpy6ZHcxraBTH3zv-20" edge="1">
          <mxGeometry width="50" height="50" relative="1" as="geometry">
            <mxPoint x="150.00000000000003" y="460" as="sourcePoint" />
            <mxPoint x="60" y="370" as="targetPoint" />
          </mxGeometry>
        </mxCell>
        <mxCell id="aDRMnpy6ZHcxraBTH3zv-36" value="" style="shape=flexArrow;endArrow=classic;html=1;rounded=0;exitX=0.5;exitY=0;exitDx=0;exitDy=0;width=3.9080459770114944;endSize=3.9724137931034487;endWidth=9.906196327123794;fontSize=12;" parent="1" edge="1">
          <mxGeometry width="50" height="50" relative="1" as="geometry">
            <mxPoint x="59.71" y="370" as="sourcePoint" />
            <mxPoint x="60" y="330" as="targetPoint" />
          </mxGeometry>
        </mxCell>
        <mxCell id="aDRMnpy6ZHcxraBTH3zv-37" value="&lt;font style=&quot;font-size: 12px;&quot;&gt;1.Identificacion/Evaluacion de riesgos&lt;br style=&quot;font-size: 12px;&quot;&gt;2. Planificacion y prevencion&lt;br style=&quot;font-size: 12px;&quot;&gt;3. Implantacion de medidas preventivas&lt;br style=&quot;font-size: 12px;&quot;&gt;3.Control y correction&lt;br style=&quot;font-size: 12px;&quot;&gt;&lt;/font&gt;" style="rounded=1;whiteSpace=wrap;html=1;fontSize=12;" parent="1" vertex="1">
          <mxGeometry x="-20" y="210" width="160" height="120" as="geometry" />
        </mxCell>
        <mxCell id="aDRMnpy6ZHcxraBTH3zv-38" value="" style="shape=flexArrow;endArrow=classic;html=1;rounded=0;exitX=0.5;exitY=0;exitDx=0;exitDy=0;width=3.9080459770114944;endSize=3.9724137931034487;endWidth=9.906196327123794;fontSize=12;" parent="1" source="aDRMnpy6ZHcxraBTH3zv-3" target="aDRMnpy6ZHcxraBTH3zv-20" edge="1">
          <mxGeometry width="50" height="50" relative="1" as="geometry">
            <mxPoint x="60" y="460" as="sourcePoint" />
            <mxPoint x="60" y="370" as="targetPoint" />
          </mxGeometry>
        </mxCell>
        <mxCell id="aDRMnpy6ZHcxraBTH3zv-20" value="&lt;font style=&quot;font-size: 12px;&quot;&gt;Sistemas de gestion&lt;/font&gt;" style="rounded=1;whiteSpace=wrap;html=1;fontSize=12;" parent="1" vertex="1">
          <mxGeometry x="20" y="370" width="80" height="40" as="geometry" />
        </mxCell>
        <mxCell id="aDRMnpy6ZHcxraBTH3zv-39" value="" style="shape=flexArrow;endArrow=classic;html=1;rounded=0;exitX=0;exitY=0.5;exitDx=0;exitDy=0;width=3.9080459770114944;endSize=3.9724137931034487;endWidth=9.906196327123794;entryX=1;entryY=0.5;entryDx=0;entryDy=0;fontSize=12;" parent="1" source="aDRMnpy6ZHcxraBTH3zv-3" target="aDRMnpy6ZHcxraBTH3zv-40" edge="1">
          <mxGeometry width="50" height="50" relative="1" as="geometry">
            <mxPoint x="70" y="470" as="sourcePoint" />
            <mxPoint x="-50" y="490" as="targetPoint" />
          </mxGeometry>
        </mxCell>
        <mxCell id="aDRMnpy6ZHcxraBTH3zv-40" value="&lt;font style=&quot;font-size: 12px;&quot;&gt;Estimacion del riesgo&lt;/font&gt;" style="rounded=1;whiteSpace=wrap;html=1;fontSize=12;" parent="1" vertex="1">
          <mxGeometry x="-190" y="470" width="80" height="40" as="geometry" />
        </mxCell>
        <mxCell id="aDRMnpy6ZHcxraBTH3zv-42" value="" style="shape=flexArrow;endArrow=classic;html=1;rounded=0;exitX=0.5;exitY=0;exitDx=0;exitDy=0;width=3.9080459770114944;endSize=3.9724137931034487;endWidth=9.906196327123794;entryX=1;entryY=0.5;entryDx=0;entryDy=0;fontSize=12;" parent="1" source="aDRMnpy6ZHcxraBTH3zv-40" target="aDRMnpy6ZHcxraBTH3zv-43" edge="1">
          <mxGeometry width="50" height="50" relative="1" as="geometry">
            <mxPoint x="-150.42" y="470" as="sourcePoint" />
            <mxPoint x="-150.42" y="420" as="targetPoint" />
            <Array as="points">
              <mxPoint x="-150" y="415" />
            </Array>
          </mxGeometry>
        </mxCell>
        <mxCell id="aDRMnpy6ZHcxraBTH3zv-43" value="&lt;font style=&quot;font-size: 12px;&quot;&gt;&lt;b style=&quot;font-size: 12px;&quot;&gt;Probabilidad&lt;/b&gt;:&lt;br style=&quot;font-size: 12px;&quot;&gt;&lt;div style=&quot;text-align: justify; font-size: 12px;&quot;&gt;&lt;b style=&quot;background-color: initial; font-size: 12px;&quot;&gt;Baja&lt;/b&gt;&lt;span style=&quot;background-color: initial; font-size: 12px;&quot;&gt;: el daño se producirá raras veces.&lt;/span&gt;&lt;/div&gt;&lt;div style=&quot;text-align: justify; font-size: 12px;&quot;&gt;&lt;b style=&quot;background-color: initial; font-size: 12px;&quot;&gt;Media&lt;/b&gt;&lt;span style=&quot;background-color: initial; font-size: 12px;&quot;&gt;: el daño ocurrirá en algunas ocasiones.&lt;/span&gt;&lt;/div&gt;&lt;div style=&quot;text-align: justify; font-size: 12px;&quot;&gt;&lt;b style=&quot;background-color: initial; font-size: 12px;&quot;&gt;Alta&lt;/b&gt;&lt;span style=&quot;background-color: initial; font-size: 12px;&quot;&gt;: el daño se producirá siempre o casi siempre&lt;/span&gt;&lt;/div&gt;&lt;/font&gt;" style="rounded=1;whiteSpace=wrap;html=1;fontSize=12;" parent="1" vertex="1">
          <mxGeometry x="-380" y="360" width="180" height="110" as="geometry" />
        </mxCell>
        <mxCell id="aDRMnpy6ZHcxraBTH3zv-46" value="&lt;div style=&quot;font-size: 12px;&quot;&gt;&lt;b style=&quot;font-size: 12px; background-color: initial;&quot;&gt;Gravedad&lt;/b&gt;&lt;span style=&quot;font-size: 12px; background-color: initial;&quot;&gt;:&lt;/span&gt;&lt;/div&gt;&lt;font style=&quot;font-size: 12px;&quot;&gt;&lt;div style=&quot;text-align: left; font-size: 12px;&quot;&gt;&lt;b style=&quot;background-color: initial; font-size: 12px;&quot;&gt;Ligeramente dañinos&lt;/b&gt;&lt;span style=&quot;background-color: initial; font-size: 12px;&quot;&gt;: dalos superficiales(cortes, magulladuras peq, etc)&lt;/span&gt;&lt;/div&gt;&lt;b style=&quot;font-size: 12px;&quot;&gt;&lt;div style=&quot;text-align: left; font-size: 12px;&quot;&gt;&lt;b style=&quot;background-color: initial; font-size: 12px;&quot;&gt;Dañinos&lt;/b&gt;&lt;span style=&quot;background-color: initial; font-weight: normal; font-size: 12px;&quot;&gt;: lecaraciones, quemaduras, conmociones, fracturas menores, etc&lt;/span&gt;&lt;/div&gt;&lt;/b&gt;&lt;div style=&quot;text-align: left; font-size: 12px;&quot;&gt;&lt;b style=&quot;background-color: initial; font-size: 12px;&quot;&gt;Extremadamente dañidos&lt;/b&gt;&lt;span style=&quot;background-color: initial; font-size: 12px;&quot;&gt;: amputaciones, fracturas mayores, intoxicaciones, lesiones multiples y lesiones fatales.&lt;/span&gt;&lt;/div&gt;&lt;/font&gt;" style="rounded=1;whiteSpace=wrap;html=1;verticalAlign=middle;fontSize=12;" parent="1" vertex="1">
          <mxGeometry x="-380" y="500" width="180" height="190" as="geometry" />
        </mxCell>
        <mxCell id="aDRMnpy6ZHcxraBTH3zv-47" value="" style="shape=flexArrow;endArrow=classic;html=1;rounded=0;exitX=0.5;exitY=1;exitDx=0;exitDy=0;width=3.9080459770114944;endSize=3.9724137931034487;endWidth=9.906196327123794;entryX=1;entryY=0.5;entryDx=0;entryDy=0;fontSize=12;" parent="1" source="aDRMnpy6ZHcxraBTH3zv-40" target="aDRMnpy6ZHcxraBTH3zv-46" edge="1">
          <mxGeometry width="50" height="50" relative="1" as="geometry">
            <mxPoint x="-140" y="480" as="sourcePoint" />
            <mxPoint x="-190" y="425" as="targetPoint" />
            <Array as="points">
              <mxPoint x="-150" y="595" />
            </Array>
          </mxGeometry>
        </mxCell>
        <mxCell id="aDRMnpy6ZHcxraBTH3zv-48" value="&lt;font style=&quot;font-size: 12px;&quot;&gt;Valoracion del riesgo&lt;/font&gt;" style="rounded=1;whiteSpace=wrap;html=1;fontSize=12;" parent="1" vertex="1">
          <mxGeometry x="20" y="585" width="80" height="40" as="geometry" />
        </mxCell>
        <mxCell id="aDRMnpy6ZHcxraBTH3zv-49" value="" style="shape=flexArrow;endArrow=classic;html=1;rounded=0;exitX=0.5;exitY=1;exitDx=0;exitDy=0;width=3.9080459770114944;endSize=3.9724137931034487;endWidth=9.906196327123794;entryX=0.5;entryY=0;entryDx=0;entryDy=0;fontSize=12;" parent="1" source="aDRMnpy6ZHcxraBTH3zv-3" target="aDRMnpy6ZHcxraBTH3zv-48" edge="1">
          <mxGeometry width="50" height="50" relative="1" as="geometry">
            <mxPoint x="70" y="470" as="sourcePoint" />
            <mxPoint x="70" y="420" as="targetPoint" />
          </mxGeometry>
        </mxCell>
        <mxCell id="aDRMnpy6ZHcxraBTH3zv-50" value="" style="shape=flexArrow;endArrow=classic;html=1;rounded=0;exitX=0.5;exitY=1;exitDx=0;exitDy=0;width=3.9080459770114944;endSize=3.9724137931034487;endWidth=9.906196327123794;entryX=0.5;entryY=0;entryDx=0;entryDy=0;fontSize=12;" parent="1" edge="1">
          <mxGeometry width="50" height="50" relative="1" as="geometry">
            <mxPoint x="59.57" y="625" as="sourcePoint" />
            <mxPoint x="59.57" y="690" as="targetPoint" />
          </mxGeometry>
        </mxCell>
        <mxCell id="aDRMnpy6ZHcxraBTH3zv-55" value="&lt;font style=&quot;font-size: 12px;&quot;&gt;Gravedad&lt;/font&gt;" style="rounded=0;whiteSpace=wrap;html=1;fontSize=12;" parent="1" vertex="1">
          <mxGeometry x="-76.25" y="690" width="276.25" height="20" as="geometry" />
        </mxCell>
        <mxCell id="aDRMnpy6ZHcxraBTH3zv-56" value="LD" style="rounded=0;whiteSpace=wrap;html=1;fontSize=12;" parent="1" vertex="1">
          <mxGeometry x="-76.25" y="710" width="92.5" height="20" as="geometry" />
        </mxCell>
        <mxCell id="aDRMnpy6ZHcxraBTH3zv-57" value="D" style="rounded=0;whiteSpace=wrap;html=1;fontSize=12;" parent="1" vertex="1">
          <mxGeometry x="16.25" y="710" width="92.5" height="20" as="geometry" />
        </mxCell>
        <mxCell id="aDRMnpy6ZHcxraBTH3zv-58" value="ED" style="rounded=0;whiteSpace=wrap;html=1;fontSize=12;" parent="1" vertex="1">
          <mxGeometry x="108.75" y="710" width="91.25" height="20" as="geometry" />
        </mxCell>
        <mxCell id="aDRMnpy6ZHcxraBTH3zv-59" value="B" style="rounded=0;whiteSpace=wrap;html=1;fontSize=12;" parent="1" vertex="1">
          <mxGeometry x="-168.75" y="730" width="92.5" height="20" as="geometry" />
        </mxCell>
        <mxCell id="aDRMnpy6ZHcxraBTH3zv-60" value="M" style="rounded=0;whiteSpace=wrap;html=1;fontSize=12;" parent="1" vertex="1">
          <mxGeometry x="-168.75" y="750" width="92.5" height="20" as="geometry" />
        </mxCell>
        <mxCell id="aDRMnpy6ZHcxraBTH3zv-61" value="A" style="rounded=0;whiteSpace=wrap;html=1;fontSize=12;" parent="1" vertex="1">
          <mxGeometry x="-168.75" y="770" width="92.5" height="20" as="geometry" />
        </mxCell>
        <mxCell id="aDRMnpy6ZHcxraBTH3zv-62" value="Trivial(T)" style="rounded=0;whiteSpace=wrap;html=1;fontSize=12;" parent="1" vertex="1">
          <mxGeometry x="-76.25" y="730" width="92.5" height="20" as="geometry" />
        </mxCell>
        <mxCell id="aDRMnpy6ZHcxraBTH3zv-63" value="Tolerable(TO)" style="rounded=0;whiteSpace=wrap;html=1;fontSize=12;" parent="1" vertex="1">
          <mxGeometry x="-76.25" y="750" width="92.5" height="20" as="geometry" />
        </mxCell>
        <mxCell id="aDRMnpy6ZHcxraBTH3zv-64" value="Moderado(MO)" style="rounded=0;whiteSpace=wrap;html=1;fontSize=12;" parent="1" vertex="1">
          <mxGeometry x="-76.25" y="770" width="92.5" height="20" as="geometry" />
        </mxCell>
        <mxCell id="aDRMnpy6ZHcxraBTH3zv-66" value="Tolerable(TO)" style="rounded=0;whiteSpace=wrap;html=1;fontSize=12;" parent="1" vertex="1">
          <mxGeometry x="16.25" y="730" width="92.5" height="20" as="geometry" />
        </mxCell>
        <mxCell id="aDRMnpy6ZHcxraBTH3zv-67" value="Moderado(MO)" style="rounded=0;whiteSpace=wrap;html=1;fontSize=12;" parent="1" vertex="1">
          <mxGeometry x="16.25" y="750" width="92.5" height="20" as="geometry" />
        </mxCell>
        <mxCell id="aDRMnpy6ZHcxraBTH3zv-68" value="Moderado(MO)" style="rounded=0;whiteSpace=wrap;html=1;fontSize=12;" parent="1" vertex="1">
          <mxGeometry x="108.75" y="730" width="91.25" height="20" as="geometry" />
        </mxCell>
        <mxCell id="aDRMnpy6ZHcxraBTH3zv-69" value="Importante(I)" style="rounded=0;whiteSpace=wrap;html=1;fontSize=12;" parent="1" vertex="1">
          <mxGeometry x="16.25" y="770" width="92.5" height="20" as="geometry" />
        </mxCell>
        <mxCell id="aDRMnpy6ZHcxraBTH3zv-70" value="Importante(I)" style="rounded=0;whiteSpace=wrap;html=1;fontSize=12;" parent="1" vertex="1">
          <mxGeometry x="108.75" y="750" width="91.25" height="20" as="geometry" />
        </mxCell>
        <mxCell id="aDRMnpy6ZHcxraBTH3zv-71" value="Intolerable(IN)" style="rounded=0;whiteSpace=wrap;html=1;fontSize=12;" parent="1" vertex="1">
          <mxGeometry x="108.75" y="770" width="91.25" height="20" as="geometry" />
        </mxCell>
        <mxCell id="aDRMnpy6ZHcxraBTH3zv-72" value="Probabilidad" style="rounded=0;fontSize=12;html=1;whiteSpace=wrap;horizontal=1;" parent="1" vertex="1">
          <mxGeometry x="-240" y="730" width="71.25" height="60" as="geometry" />
        </mxCell>
        <mxCell id="aDRMnpy6ZHcxraBTH3zv-73" value="" style="shape=flexArrow;endArrow=classic;html=1;rounded=0;exitX=0.5;exitY=1;exitDx=0;exitDy=0;width=3.9080459770114944;endSize=3.9724137931034487;endWidth=9.906196327123794;entryX=0.65;entryY=-0.008;entryDx=0;entryDy=0;entryPerimeter=0;fontSize=12;" parent="1" target="aDRMnpy6ZHcxraBTH3zv-74" edge="1">
          <mxGeometry width="50" height="50" relative="1" as="geometry">
            <mxPoint x="59.57999999999999" y="790" as="sourcePoint" />
            <mxPoint x="59.57999999999999" y="855" as="targetPoint" />
          </mxGeometry>
        </mxCell>
        <mxCell id="aDRMnpy6ZHcxraBTH3zv-74" value="&lt;div style=&quot;font-size: 12px;&quot;&gt;&lt;b style=&quot;font-size: 12px; background-color: initial;&quot;&gt;Trivial&lt;/b&gt;&lt;span style=&quot;font-size: 12px; background-color: initial;&quot;&gt;: no se requiere un actuacion especifica.&lt;/span&gt;&lt;/div&gt;&lt;font style=&quot;font-size: 12px;&quot;&gt;&lt;div style=&quot;font-size: 12px;&quot;&gt;&lt;b style=&quot;background-color: initial; font-size: 12px;&quot;&gt;Tolerable&lt;/b&gt;&lt;span style=&quot;background-color: initial; font-size: 12px;&quot;&gt;: no es necesatio perfeccionar la accion preventiva, se deben considerar cosulicones mas rentables y se requeiren comprobaciones periodicas para asegurar que se mantiene la eficacia de las medidas de control.&lt;/span&gt;&lt;/div&gt;&lt;b style=&quot;font-size: 12px;&quot;&gt;&lt;div style=&quot;font-size: 12px;&quot;&gt;&lt;b style=&quot;background-color: initial; font-size: 12px;&quot;&gt;Moderado&lt;/b&gt;&lt;span style=&quot;background-color: initial; font-weight: normal; font-size: 12px;&quot;&gt;: se debe reducir el riesgo determinando las inversiones precisas y el periodo de implantacion.&lt;/span&gt;&lt;/div&gt;&lt;/b&gt;&lt;b style=&quot;font-size: 12px;&quot;&gt;&lt;div style=&quot;font-size: 12px;&quot;&gt;&lt;b style=&quot;background-color: initial; font-size: 12px;&quot;&gt;Importante&lt;/b&gt;&lt;span style=&quot;background-color: initial; font-weight: normal; font-size: 12px;&quot;&gt;: hay que paralizar el trabajo hasta que se reduzca el riesgo. Se necesitarán recursos considerables.&lt;/span&gt;&lt;/div&gt;&lt;/b&gt;&lt;b style=&quot;font-size: 12px;&quot;&gt;&lt;div style=&quot;font-size: 12px;&quot;&gt;&lt;b style=&quot;background-color: initial; font-size: 12px;&quot;&gt;Intolerable&lt;/b&gt;&lt;span style=&quot;background-color: initial; font-weight: normal; font-size: 12px;&quot;&gt;: se debe prohibir el trabajo y dedicar recursos illimitados si es necesario para eliminar ese riesgo.&lt;/span&gt;&lt;/div&gt;&lt;/b&gt;&lt;/font&gt;" style="rounded=1;whiteSpace=wrap;html=1;align=center;fontSize=12;" parent="1" vertex="1">
          <mxGeometry x="-220" y="860" width="430" height="150" as="geometry" />
        </mxCell>
        <mxCell id="aDRMnpy6ZHcxraBTH3zv-76" value="" style="shape=flexArrow;endArrow=classic;html=1;rounded=0;exitX=0.974;exitY=0.072;exitDx=0;exitDy=0;width=3.9080459770114944;endSize=3.9724137931034487;endWidth=9.906196327123794;exitPerimeter=0;fontSize=12;" parent="1" source="aDRMnpy6ZHcxraBTH3zv-14" edge="1">
          <mxGeometry width="50" height="50" relative="1" as="geometry">
            <mxPoint x="760" y="400" as="sourcePoint" />
            <mxPoint x="880" y="410" as="targetPoint" />
          </mxGeometry>
        </mxCell>
        <mxCell id="aDRMnpy6ZHcxraBTH3zv-77" value="A. Los delegados de prevención&amp;nbsp;" style="rounded=1;whiteSpace=wrap;html=1;fontSize=12;" parent="1" vertex="1">
          <mxGeometry x="860" y="360" width="87" height="50" as="geometry" />
        </mxCell>
        <mxCell id="aDRMnpy6ZHcxraBTH3zv-78" value="" style="shape=flexArrow;endArrow=classic;html=1;rounded=0;exitX=1;exitY=0.5;exitDx=0;exitDy=0;width=3.9080459770114944;endSize=3.9724137931034487;endWidth=9.906196327123794;entryX=0;entryY=0.5;entryDx=0;entryDy=0;fontSize=12;" parent="1" source="aDRMnpy6ZHcxraBTH3zv-77" target="aDRMnpy6ZHcxraBTH3zv-79" edge="1">
          <mxGeometry width="50" height="50" relative="1" as="geometry">
            <mxPoint x="903.36" y="360" as="sourcePoint" />
            <mxPoint x="903.5" y="330" as="targetPoint" />
          </mxGeometry>
        </mxCell>
        <mxCell id="aDRMnpy6ZHcxraBTH3zv-79" value="&lt;div style=&quot;text-align: justify; font-size: 12px;&quot;&gt;&lt;span style=&quot;font-size: 12px; background-color: initial;&quot;&gt;Son los representantes de las personas trabajadoras en la empresa con funciones&lt;/span&gt;&lt;/div&gt;&lt;font style=&quot;font-size: 12px;&quot;&gt;&lt;div style=&quot;text-align: justify; font-size: 12px;&quot;&gt;&lt;span style=&quot;background-color: initial; font-size: 12px;&quot;&gt;específicas sobre prevención de riesgos laborales.&lt;/span&gt;&lt;/div&gt;&lt;div style=&quot;text-align: justify; font-size: 12px;&quot;&gt;&lt;span style=&quot;background-color: initial; font-size: 12px;&quot;&gt;Son designados por y entre los representantes del personal (delegados de&lt;/span&gt;&lt;/div&gt;&lt;div style=&quot;text-align: justify; font-size: 12px;&quot;&gt;&lt;span style=&quot;background-color: initial; font-size: 12px;&quot;&gt;personal y comité de empresa). Su número se fija de acuerdo con una escala&lt;/span&gt;&lt;/div&gt;&lt;div style=&quot;text-align: justify; font-size: 12px;&quot;&gt;&lt;span style=&quot;background-color: initial; font-size: 12px;&quot;&gt;predeterminada.&lt;/span&gt;&lt;/div&gt;&lt;/font&gt;" style="rounded=1;whiteSpace=wrap;html=1;align=left;fontSize=12;" parent="1" vertex="1">
          <mxGeometry x="990" y="320" width="310" height="130" as="geometry" />
        </mxCell>
        <mxCell id="aDRMnpy6ZHcxraBTH3zv-80" value="A. Los delegados de prevención&amp;nbsp;" style="rounded=1;whiteSpace=wrap;html=1;fontSize=12;" parent="1" vertex="1">
          <mxGeometry x="860" y="560" width="87" height="50" as="geometry" />
        </mxCell>
        <mxCell id="aDRMnpy6ZHcxraBTH3zv-83" value="" style="shape=flexArrow;endArrow=classic;html=1;rounded=0;exitX=0.973;exitY=0.948;exitDx=0;exitDy=0;width=3.9080459770114944;endSize=3.9724137931034487;endWidth=9.906196327123794;exitPerimeter=0;entryX=0.25;entryY=0;entryDx=0;entryDy=0;fontSize=12;" parent="1" source="aDRMnpy6ZHcxraBTH3zv-14" target="aDRMnpy6ZHcxraBTH3zv-80" edge="1">
          <mxGeometry width="50" height="50" relative="1" as="geometry">
            <mxPoint x="860" y="470" as="sourcePoint" />
            <mxPoint x="890" y="560" as="targetPoint" />
          </mxGeometry>
        </mxCell>
        <mxCell id="aDRMnpy6ZHcxraBTH3zv-84" value="&lt;div style=&quot;text-align: justify; font-size: 12px;&quot;&gt;Órgano paritario y colegiado de participación y consulta&lt;br style=&quot;font-size: 12px;&quot;&gt;periódica de las actuaciones de la empresa en materia de&lt;br style=&quot;font-size: 12px;&quot;&gt;prevención de riesgos laborales que se constituye en empresas&lt;br style=&quot;font-size: 12px;&quot;&gt;o centros de trabajo con cincuenta o más personas&lt;br style=&quot;font-size: 12px;&quot;&gt;trabajadoras.&lt;br style=&quot;font-size: 12px;&quot;&gt;Este comité, al ser un órgano paritario, estará constituido por&lt;br style=&quot;font-size: 12px;&quot;&gt;los delegados de prevención y el mismo número de&lt;br style=&quot;font-size: 12px;&quot;&gt;representantes de la empresa&lt;br style=&quot;font-size: 12px;&quot;&gt;&lt;/div&gt;" style="rounded=1;whiteSpace=wrap;html=1;align=left;fontSize=12;" parent="1" vertex="1">
          <mxGeometry x="990" y="510" width="340" height="150" as="geometry" />
        </mxCell>
        <mxCell id="aDRMnpy6ZHcxraBTH3zv-85" value="" style="shape=flexArrow;endArrow=classic;html=1;rounded=0;exitX=1;exitY=0.5;exitDx=0;exitDy=0;width=3.9080459770114944;endSize=3.9724137931034487;endWidth=9.906196327123794;entryX=0;entryY=0.5;entryDx=0;entryDy=0;fontSize=12;" parent="1" edge="1">
          <mxGeometry width="50" height="50" relative="1" as="geometry">
            <mxPoint x="947" y="584.4300000000001" as="sourcePoint" />
            <mxPoint x="990" y="584.4300000000001" as="targetPoint" />
          </mxGeometry>
        </mxCell>
        <mxCell id="aDRMnpy6ZHcxraBTH3zv-86" value="" style="shape=flexArrow;endArrow=classic;html=1;rounded=0;exitX=1;exitY=0.5;exitDx=0;exitDy=0;width=3.9080459770114944;endSize=3.9724137931034487;endWidth=9.906196327123794;entryX=0;entryY=0.5;entryDx=0;entryDy=0;fontSize=12;" parent="1" target="aDRMnpy6ZHcxraBTH3zv-90" edge="1">
          <mxGeometry width="50" height="50" relative="1" as="geometry">
            <mxPoint x="904" y="360" as="sourcePoint" />
            <mxPoint x="1000" y="260" as="targetPoint" />
          </mxGeometry>
        </mxCell>
        <mxCell id="aDRMnpy6ZHcxraBTH3zv-88" value="101-500" style="rounded=0;whiteSpace=wrap;html=1;fontSize=12;" parent="1" vertex="1">
          <mxGeometry x="1030" y="180" width="60" height="20" as="geometry" />
        </mxCell>
        <mxCell id="aDRMnpy6ZHcxraBTH3zv-89" value="Delegad@s" style="rounded=0;whiteSpace=wrap;html=1;fontSize=12;" parent="1" vertex="1">
          <mxGeometry x="1090" y="120" width="70" height="20" as="geometry" />
        </mxCell>
        <mxCell id="aDRMnpy6ZHcxraBTH3zv-90" value="501-1000" style="rounded=0;whiteSpace=wrap;html=1;fontSize=12;" parent="1" vertex="1">
          <mxGeometry x="1030" y="200" width="60" height="20" as="geometry" />
        </mxCell>
        <mxCell id="aDRMnpy6ZHcxraBTH3zv-91" value="1001-2000" style="rounded=0;whiteSpace=wrap;html=1;fontSize=12;" parent="1" vertex="1">
          <mxGeometry x="1030" y="220" width="60" height="20" as="geometry" />
        </mxCell>
        <mxCell id="aDRMnpy6ZHcxraBTH3zv-92" value="2001-3000" style="rounded=0;whiteSpace=wrap;html=1;fontSize=12;" parent="1" vertex="1">
          <mxGeometry x="1030" y="240" width="60" height="20" as="geometry" />
        </mxCell>
        <mxCell id="aDRMnpy6ZHcxraBTH3zv-93" value="3001-4000" style="rounded=0;whiteSpace=wrap;html=1;fontSize=12;" parent="1" vertex="1">
          <mxGeometry x="1030" y="260" width="60" height="20" as="geometry" />
        </mxCell>
        <mxCell id="aDRMnpy6ZHcxraBTH3zv-94" value="4001+" style="rounded=0;whiteSpace=wrap;html=1;fontSize=12;" parent="1" vertex="1">
          <mxGeometry x="1030" y="280" width="60" height="20" as="geometry" />
        </mxCell>
        <mxCell id="aDRMnpy6ZHcxraBTH3zv-97" value="50-100" style="rounded=0;whiteSpace=wrap;html=1;fontSize=12;" parent="1" vertex="1">
          <mxGeometry x="1030" y="160" width="60" height="20" as="geometry" />
        </mxCell>
        <mxCell id="aDRMnpy6ZHcxraBTH3zv-98" value="10-49" style="rounded=0;whiteSpace=wrap;html=1;fontSize=12;" parent="1" vertex="1">
          <mxGeometry x="1030" y="140" width="60" height="20" as="geometry" />
        </mxCell>
        <mxCell id="aDRMnpy6ZHcxraBTH3zv-99" value="Plantilla" style="rounded=0;whiteSpace=wrap;html=1;fontSize=12;" parent="1" vertex="1">
          <mxGeometry x="1030" y="120" width="60" height="20" as="geometry" />
        </mxCell>
        <mxCell id="aDRMnpy6ZHcxraBTH3zv-100" value="1" style="rounded=0;whiteSpace=wrap;html=1;fontSize=12;" parent="1" vertex="1">
          <mxGeometry x="1090" y="140" width="70" height="20" as="geometry" />
        </mxCell>
        <mxCell id="aDRMnpy6ZHcxraBTH3zv-101" value="2" style="rounded=0;whiteSpace=wrap;html=1;fontSize=12;" parent="1" vertex="1">
          <mxGeometry x="1090" y="160" width="70" height="20" as="geometry" />
        </mxCell>
        <mxCell id="aDRMnpy6ZHcxraBTH3zv-102" value="3" style="rounded=0;whiteSpace=wrap;html=1;fontSize=12;" parent="1" vertex="1">
          <mxGeometry x="1090" y="180" width="70" height="20" as="geometry" />
        </mxCell>
        <mxCell id="aDRMnpy6ZHcxraBTH3zv-103" value="5" style="rounded=0;whiteSpace=wrap;html=1;fontSize=12;" parent="1" vertex="1">
          <mxGeometry x="1090" y="220" width="70" height="20" as="geometry" />
        </mxCell>
        <mxCell id="aDRMnpy6ZHcxraBTH3zv-104" value="6" style="rounded=0;whiteSpace=wrap;html=1;fontSize=12;" parent="1" vertex="1">
          <mxGeometry x="1090" y="240" width="70" height="20" as="geometry" />
        </mxCell>
        <mxCell id="aDRMnpy6ZHcxraBTH3zv-105" value="4" style="rounded=0;whiteSpace=wrap;html=1;fontSize=12;" parent="1" vertex="1">
          <mxGeometry x="1090" y="200" width="70" height="20" as="geometry" />
        </mxCell>
        <mxCell id="aDRMnpy6ZHcxraBTH3zv-106" value="7" style="rounded=0;whiteSpace=wrap;html=1;fontSize=12;" parent="1" vertex="1">
          <mxGeometry x="1090" y="260" width="70" height="20" as="geometry" />
        </mxCell>
        <mxCell id="aDRMnpy6ZHcxraBTH3zv-107" value="8" style="rounded=0;whiteSpace=wrap;html=1;fontSize=12;" parent="1" vertex="1">
          <mxGeometry x="1090" y="280" width="70" height="20" as="geometry" />
        </mxCell>
        <mxCell id="aDRMnpy6ZHcxraBTH3zv-109" value="" style="shape=flexArrow;endArrow=classic;html=1;rounded=0;exitX=0.5;exitY=1;exitDx=0;exitDy=0;fontSize=12;" parent="1" source="aDRMnpy6ZHcxraBTH3zv-2" edge="1">
          <mxGeometry width="50" height="50" relative="1" as="geometry">
            <mxPoint x="510" y="710" as="sourcePoint" />
            <mxPoint x="420" y="710" as="targetPoint" />
          </mxGeometry>
        </mxCell>
        <mxCell id="aDRMnpy6ZHcxraBTH3zv-110" value="Los organismos públicos relacionados con la prevención" style="rounded=1;whiteSpace=wrap;html=1;fontSize=12;" parent="1" vertex="1">
          <mxGeometry x="360" y="710" width="120" height="60" as="geometry" />
        </mxCell>
        <mxCell id="aDRMnpy6ZHcxraBTH3zv-111" value="Ogranismos de la UE" style="rounded=0;whiteSpace=wrap;html=1;horizontal=0;fontSize=12;" parent="1" vertex="1">
          <mxGeometry x="320" y="800" width="30" height="150" as="geometry" />
        </mxCell>
        <mxCell id="aDRMnpy6ZHcxraBTH3zv-112" value="Ogranismos nacionales" style="rounded=0;whiteSpace=wrap;html=1;horizontal=0;fontSize=12;" parent="1" vertex="1">
          <mxGeometry x="320" y="950" width="30" height="200" as="geometry" />
        </mxCell>
        <mxCell id="aDRMnpy6ZHcxraBTH3zv-113" value="&lt;div style=&quot;font-size: 11px;&quot;&gt;Agencia Europea para la Seguridad y la Salud en el Trabajo (EU-OSHA)&lt;br style=&quot;font-size: 11px;&quot;&gt;&lt;/div&gt;" style="rounded=0;whiteSpace=wrap;html=1;align=center;verticalAlign=middle;horizontal=1;fontSize=11;fontStyle=0" parent="1" vertex="1">
          <mxGeometry x="350" y="800" width="160" height="50" as="geometry" />
        </mxCell>
        <mxCell id="aDRMnpy6ZHcxraBTH3zv-114" value="Fundación Europea para la Mejora de las Condiciones de Vida y de Trabajo (Eurofound)" style="rounded=0;whiteSpace=wrap;html=1;verticalAlign=middle;align=center;fontSize=11;fontStyle=0" parent="1" vertex="1">
          <mxGeometry x="350" y="850" width="160" height="50" as="geometry" />
        </mxCell>
        <mxCell id="aDRMnpy6ZHcxraBTH3zv-115" value="&lt;br style=&quot;font-size: 11px;&quot;&gt;Comité Consultivo para la Seguridad y la Salud en el Trabajo (CCSST)&lt;br style=&quot;font-size: 11px;&quot;&gt;" style="rounded=0;whiteSpace=wrap;html=1;fontSize=11;verticalAlign=bottom;fontStyle=0" parent="1" vertex="1">
          <mxGeometry x="350" y="900" width="160" height="50" as="geometry" />
        </mxCell>
        <mxCell id="aDRMnpy6ZHcxraBTH3zv-116" value="&lt;br style=&quot;font-size: 11px;&quot;&gt;Instituto Nacional de Seguridad y Salud en el Trabajo (INSST)&lt;br style=&quot;font-size: 11px;&quot;&gt;" style="rounded=0;whiteSpace=wrap;html=1;fontSize=11;" parent="1" vertex="1">
          <mxGeometry x="350" y="950" width="160" height="50" as="geometry" />
        </mxCell>
        <mxCell id="aDRMnpy6ZHcxraBTH3zv-117" value="Organismos técnicos de las comunidades autónomas" style="rounded=0;whiteSpace=wrap;html=1;fontSize=11;" parent="1" vertex="1">
          <mxGeometry x="350" y="1000" width="160" height="50" as="geometry" />
        </mxCell>
        <mxCell id="aDRMnpy6ZHcxraBTH3zv-118" value="&lt;br style=&quot;font-size: 11px;&quot;&gt;Inspección de Trabajo y Seguridad Social (ITSS)&lt;br style=&quot;font-size: 11px;&quot;&gt;&lt;br style=&quot;font-size: 11px;&quot;&gt;" style="rounded=0;whiteSpace=wrap;html=1;fontSize=11;" parent="1" vertex="1">
          <mxGeometry x="350" y="1050" width="160" height="50" as="geometry" />
        </mxCell>
        <mxCell id="aDRMnpy6ZHcxraBTH3zv-119" value="&lt;br style=&quot;font-size: 11px;&quot;&gt;Comisión Nacional de Seguridad y Salud en el Trabajo (CNSST)&lt;br style=&quot;font-size: 11px;&quot;&gt;&lt;br style=&quot;font-size: 11px;&quot;&gt;" style="rounded=0;whiteSpace=wrap;html=1;fontSize=11;" parent="1" vertex="1">
          <mxGeometry x="350" y="1100" width="160" height="50" as="geometry" />
        </mxCell>
        <mxCell id="aDRMnpy6ZHcxraBTH3zv-121" value="&lt;div style=&quot;font-size: 12px;&quot;&gt;&lt;p data-pm-slice=&quot;0 0 []&quot; style=&quot;font-size: 12px;&quot;&gt;&lt;/p&gt;&lt;p style=&quot;font-size: 12px;&quot;&gt;&lt;/p&gt;&lt;p style=&quot;font-size: 12px;&quot;&gt;&lt;/p&gt;&lt;p data-pm-slice=&quot;0 0 []&quot; style=&quot;font-size: 12px;&quot;&gt;Proporciona información sobre seguridad y salud en el trabajo en la UE, promoviendo lugares de trabajo más seguros y saludables.&lt;/p&gt;&lt;p style=&quot;font-size: 12px;&quot;&gt;&lt;/p&gt;&lt;/div&gt;" style="rounded=0;whiteSpace=wrap;html=1;align=center;verticalAlign=middle;horizontal=1;fontSize=12;fontStyle=0" parent="1" vertex="1">
          <mxGeometry x="510" y="800" width="310" height="50" as="geometry" />
        </mxCell>
        <mxCell id="aDRMnpy6ZHcxraBTH3zv-122" value="&lt;div style=&quot;font-size: 12px;&quot;&gt;&lt;p data-pm-slice=&quot;0 0 []&quot; style=&quot;font-size: 12px;&quot;&gt;&lt;/p&gt;&lt;p style=&quot;font-size: 12px;&quot;&gt;&lt;/p&gt;&lt;p style=&quot;font-size: 12px;&quot;&gt;&lt;/p&gt;&lt;p data-pm-slice=&quot;0 0 []&quot; style=&quot;font-size: 12px;&quot;&gt;&lt;/p&gt;&lt;p style=&quot;font-size: 12px;&quot;&gt;&lt;/p&gt;&lt;p style=&quot;font-size: 12px;&quot;&gt;&lt;/p&gt;&lt;p data-pm-slice=&quot;0 0 []&quot; style=&quot;font-size: 12px;&quot;&gt;Evalúa y asesora sobre las condiciones de vida y trabajo, aportando estudios y recomendaciones para mejorar la calidad de vida.&lt;/p&gt;&lt;p style=&quot;font-size: 12px;&quot;&gt;&lt;/p&gt;&lt;/div&gt;" style="rounded=0;whiteSpace=wrap;html=1;align=center;verticalAlign=middle;horizontal=1;fontSize=12;fontStyle=0" parent="1" vertex="1">
          <mxGeometry x="510" y="850" width="310" height="50" as="geometry" />
        </mxCell>
        <mxCell id="aDRMnpy6ZHcxraBTH3zv-123" value="&lt;div style=&quot;font-size: 12px;&quot;&gt;&lt;p data-pm-slice=&quot;0 0 []&quot; style=&quot;font-size: 12px;&quot;&gt;&lt;/p&gt;&lt;p style=&quot;font-size: 12px;&quot;&gt;&lt;/p&gt;&lt;p style=&quot;font-size: 12px;&quot;&gt;&lt;/p&gt;&lt;p data-pm-slice=&quot;0 0 []&quot; style=&quot;font-size: 12px;&quot;&gt;&lt;/p&gt;&lt;p style=&quot;font-size: 12px;&quot;&gt;&lt;/p&gt;&lt;p style=&quot;font-size: 12px;&quot;&gt;&lt;/p&gt;&lt;p style=&quot;font-size: 12px;&quot;&gt;&lt;/p&gt;&lt;p data-pm-slice=&quot;0 0 []&quot; style=&quot;font-size: 12px;&quot;&gt;Asesora a la Comisión Europea en la elaboración y evaluación de políticas de seguridad y salud laboral.&lt;/p&gt;&lt;p style=&quot;font-size: 12px;&quot;&gt;&lt;/p&gt;&lt;/div&gt;" style="rounded=0;whiteSpace=wrap;html=1;align=center;verticalAlign=middle;horizontal=1;fontSize=12;fontStyle=0" parent="1" vertex="1">
          <mxGeometry x="510" y="900" width="310" height="50" as="geometry" />
        </mxCell>
        <mxCell id="aDRMnpy6ZHcxraBTH3zv-124" value="&lt;div style=&quot;font-size: 12px;&quot;&gt;&lt;p data-pm-slice=&quot;0 0 []&quot; style=&quot;font-size: 12px;&quot;&gt;&lt;/p&gt;&lt;p style=&quot;font-size: 12px;&quot;&gt;&lt;/p&gt;&lt;p style=&quot;font-size: 12px;&quot;&gt;&lt;/p&gt;&lt;p data-pm-slice=&quot;0 0 []&quot; style=&quot;font-size: 12px;&quot;&gt;&lt;/p&gt;&lt;p style=&quot;font-size: 12px;&quot;&gt;&lt;/p&gt;&lt;p style=&quot;font-size: 12px;&quot;&gt;&lt;/p&gt;&lt;p style=&quot;font-size: 12px;&quot;&gt;&lt;/p&gt;&lt;p data-pm-slice=&quot;0 0 []&quot; style=&quot;font-size: 12px;&quot;&gt;&lt;/p&gt;&lt;p style=&quot;font-size: 12px;&quot;&gt;&lt;/p&gt;&lt;p style=&quot;font-size: 12px;&quot;&gt;&lt;/p&gt;&lt;p data-pm-slice=&quot;0 0 []&quot; style=&quot;font-size: 12px;&quot;&gt;Estudia y promueve mejoras en seguridad y salud laboral en España, coordinándose con organismos europeos y autonómicos.&lt;/p&gt;&lt;p style=&quot;font-size: 12px;&quot;&gt;&lt;/p&gt;&lt;/div&gt;" style="rounded=0;whiteSpace=wrap;html=1;align=center;verticalAlign=middle;horizontal=1;fontSize=12;fontStyle=0" parent="1" vertex="1">
          <mxGeometry x="510" y="950" width="310" height="50" as="geometry" />
        </mxCell>
        <mxCell id="aDRMnpy6ZHcxraBTH3zv-125" value="&lt;div style=&quot;font-size: 12px;&quot;&gt;&lt;p data-pm-slice=&quot;0 0 []&quot; style=&quot;font-size: 12px;&quot;&gt;&lt;/p&gt;&lt;p style=&quot;font-size: 12px;&quot;&gt;&lt;/p&gt;&lt;p style=&quot;font-size: 12px;&quot;&gt;&lt;/p&gt;&lt;p data-pm-slice=&quot;0 0 []&quot; style=&quot;font-size: 12px;&quot;&gt;&lt;/p&gt;&lt;p style=&quot;font-size: 12px;&quot;&gt;&lt;/p&gt;&lt;p style=&quot;font-size: 12px;&quot;&gt;&lt;/p&gt;&lt;p style=&quot;font-size: 12px;&quot;&gt;&lt;/p&gt;&lt;p data-pm-slice=&quot;0 0 []&quot; style=&quot;font-size: 12px;&quot;&gt;&lt;/p&gt;&lt;p style=&quot;font-size: 12px;&quot;&gt;&lt;/p&gt;&lt;p style=&quot;font-size: 12px;&quot;&gt;&lt;/p&gt;&lt;p data-pm-slice=&quot;0 0 []&quot; style=&quot;font-size: 12px;&quot;&gt;&lt;/p&gt;&lt;p style=&quot;font-size: 12px;&quot;&gt;&lt;/p&gt;&lt;p style=&quot;font-size: 12px;&quot;&gt;&lt;/p&gt;&lt;p data-pm-slice=&quot;0 0 []&quot; style=&quot;font-size: 12px;&quot;&gt;Promueven la prevención de riesgos laborales y aseguran el cumplimiento de la normativa en cada comunidad.&lt;/p&gt;&lt;p style=&quot;font-size: 12px;&quot;&gt;&lt;/p&gt;&lt;/div&gt;" style="rounded=0;whiteSpace=wrap;html=1;align=center;verticalAlign=middle;horizontal=1;fontSize=12;fontStyle=0" parent="1" vertex="1">
          <mxGeometry x="510" y="1000" width="310" height="50" as="geometry" />
        </mxCell>
        <mxCell id="aDRMnpy6ZHcxraBTH3zv-127" value="&lt;div style=&quot;font-size: 12px;&quot;&gt;&lt;p data-pm-slice=&quot;0 0 []&quot; style=&quot;font-size: 12px;&quot;&gt;&lt;/p&gt;&lt;p style=&quot;font-size: 12px;&quot;&gt;&lt;/p&gt;&lt;p style=&quot;font-size: 12px;&quot;&gt;&lt;/p&gt;&lt;p data-pm-slice=&quot;0 0 []&quot; style=&quot;font-size: 12px;&quot;&gt;&lt;/p&gt;&lt;p style=&quot;font-size: 12px;&quot;&gt;&lt;/p&gt;&lt;p style=&quot;font-size: 12px;&quot;&gt;&lt;/p&gt;&lt;p style=&quot;font-size: 12px;&quot;&gt;&lt;/p&gt;&lt;p data-pm-slice=&quot;0 0 []&quot; style=&quot;font-size: 12px;&quot;&gt;&lt;/p&gt;&lt;p style=&quot;font-size: 12px;&quot;&gt;&lt;/p&gt;&lt;p style=&quot;font-size: 12px;&quot;&gt;&lt;/p&gt;&lt;p data-pm-slice=&quot;0 0 []&quot; style=&quot;font-size: 12px;&quot;&gt;&lt;/p&gt;&lt;p style=&quot;font-size: 12px;&quot;&gt;&lt;/p&gt;&lt;p style=&quot;font-size: 12px;&quot;&gt;&lt;/p&gt;&lt;p data-pm-slice=&quot;0 0 []&quot; style=&quot;font-size: 12px;&quot;&gt;&lt;/p&gt;&lt;p style=&quot;font-size: 12px;&quot;&gt;&lt;/p&gt;&lt;p style=&quot;font-size: 12px;&quot;&gt;&lt;/p&gt;&lt;p data-pm-slice=&quot;0 0 []&quot; style=&quot;font-size: 12px;&quot;&gt;Controla el cumplimiento de la normativa laboral y puede intervenir en situaciones de riesgo grave para los trabajadores.&lt;/p&gt;&lt;p style=&quot;font-size: 12px;&quot;&gt;&lt;/p&gt;&lt;/div&gt;" style="rounded=0;whiteSpace=wrap;html=1;align=center;verticalAlign=middle;horizontal=1;fontSize=12;fontStyle=0" parent="1" vertex="1">
          <mxGeometry x="510" y="1050" width="310" height="50" as="geometry" />
        </mxCell>
        <mxCell id="aDRMnpy6ZHcxraBTH3zv-128" value="&lt;div style=&quot;font-size: 12px;&quot;&gt;&lt;p data-pm-slice=&quot;0 0 []&quot; style=&quot;font-size: 12px;&quot;&gt;&lt;/p&gt;&lt;p style=&quot;font-size: 12px;&quot;&gt;&lt;/p&gt;&lt;p style=&quot;font-size: 12px;&quot;&gt;&lt;/p&gt;&lt;p data-pm-slice=&quot;0 0 []&quot; style=&quot;font-size: 12px;&quot;&gt;&lt;/p&gt;&lt;p style=&quot;font-size: 12px;&quot;&gt;&lt;/p&gt;&lt;p style=&quot;font-size: 12px;&quot;&gt;&lt;/p&gt;&lt;p style=&quot;font-size: 12px;&quot;&gt;&lt;/p&gt;&lt;p data-pm-slice=&quot;0 0 []&quot; style=&quot;font-size: 12px;&quot;&gt;&lt;/p&gt;&lt;p style=&quot;font-size: 12px;&quot;&gt;&lt;/p&gt;&lt;p style=&quot;font-size: 12px;&quot;&gt;&lt;/p&gt;&lt;p data-pm-slice=&quot;0 0 []&quot; style=&quot;font-size: 12px;&quot;&gt;&lt;/p&gt;&lt;p style=&quot;font-size: 12px;&quot;&gt;&lt;/p&gt;&lt;p style=&quot;font-size: 12px;&quot;&gt;&lt;/p&gt;&lt;p data-pm-slice=&quot;0 0 []&quot; style=&quot;font-size: 12px;&quot;&gt;&lt;/p&gt;&lt;p style=&quot;font-size: 12px;&quot;&gt;&lt;/p&gt;&lt;p style=&quot;font-size: 12px;&quot;&gt;&lt;/p&gt;&lt;p data-pm-slice=&quot;0 0 []&quot; style=&quot;font-size: 12px;&quot;&gt;Asesora a las administraciones públicas en políticas de prevención laboral, con participación de representantes de diferentes sectores.&lt;/p&gt;&lt;p style=&quot;font-size: 12px;&quot;&gt;&lt;/p&gt;&lt;/div&gt;" style="rounded=0;whiteSpace=wrap;html=1;align=center;verticalAlign=middle;horizontal=1;fontSize=12;fontStyle=0" parent="1" vertex="1">
          <mxGeometry x="510" y="1100" width="310" height="50" as="geometry" />
        </mxCell>
        <mxCell id="aDRMnpy6ZHcxraBTH3zv-129" value="" style="shape=flexArrow;endArrow=classic;html=1;rounded=0;exitX=0.973;exitY=0.948;exitDx=0;exitDy=0;width=3.9080459770114944;endSize=3.9724137931034487;endWidth=9.906196327123794;exitPerimeter=0;entryX=0.401;entryY=0.003;entryDx=0;entryDy=0;entryPerimeter=0;fontSize=12;" parent="1" target="aDRMnpy6ZHcxraBTH3zv-113" edge="1">
          <mxGeometry width="50" height="50" relative="1" as="geometry">
            <mxPoint x="414.24" y="770.12" as="sourcePoint" />
            <mxPoint x="472.24" y="813.12" as="targetPoint" />
          </mxGeometry>
        </mxCell>
        <mxCell id="2bwH-tMzGomMZhV91jcm-1" value="Las medidas de emergencia en la empresa" style="rounded=1;whiteSpace=wrap;html=1;fontSize=12;" parent="1" vertex="1">
          <mxGeometry x="360" y="250" width="120" height="60" as="geometry" />
        </mxCell>
        <mxCell id="2bwH-tMzGomMZhV91jcm-2" value="" style="shape=flexArrow;endArrow=classic;html=1;rounded=0;width=3.9080459770114944;endSize=3.9724137931034487;endWidth=9.906196327123794;fontSize=12;exitX=0.043;exitY=0.019;exitDx=0;exitDy=0;exitPerimeter=0;" parent="1" source="2bwH-tMzGomMZhV91jcm-1" edge="1">
          <mxGeometry width="50" height="50" relative="1" as="geometry">
            <mxPoint x="360" y="250" as="sourcePoint" />
            <mxPoint x="290" y="140" as="targetPoint" />
          </mxGeometry>
        </mxCell>
        <mxCell id="2bwH-tMzGomMZhV91jcm-3" value="&lt;p data-pm-slice=&quot;0 0 []&quot; style=&quot;font-size: 12px;&quot;&gt;&lt;font style=&quot;font-size: 12px;&quot;&gt;Obligaciones de las empresas en situaciones de emergencia&lt;/font&gt;&lt;/p&gt;&lt;p style=&quot;font-size: 12px;&quot;&gt;&lt;/p&gt;&lt;p style=&quot;font-size: 12px;&quot;&gt;&lt;font style=&quot;font-size: 12px;&quot;&gt;Analizar las situaciones de emergencia y adoptar todas las medidas necesarias relativas a los primeros auxilios, la evacuación y la lucha contra incendios.&lt;/font&gt;&lt;/p&gt;&lt;p style=&quot;font-size: 12px;&quot;&gt;&lt;/p&gt;&lt;p style=&quot;font-size: 12px;&quot;&gt;&lt;font style=&quot;font-size: 12px;&quot;&gt;Designar a las personas trabajadoras encargadas de actuar y que cumplan estos requisitos: formación adecuada, suficientes en número y dotadas del material apropiado.&lt;/font&gt;&lt;/p&gt;&lt;p style=&quot;font-size: 12px;&quot;&gt;&lt;/p&gt;&lt;p style=&quot;font-size: 12px;&quot;&gt;&lt;font style=&quot;font-size: 12px;&quot;&gt;Organizar las relaciones que sean necesarias con los servicios externos sobre primeros auxilios, asistencia médica de urgencia, salvamento y lucha contra incendios.&lt;/font&gt;&lt;/p&gt;" style="rounded=1;whiteSpace=wrap;html=1;fontSize=12;" parent="1" vertex="1">
          <mxGeometry x="80" y="-150" width="280" height="290" as="geometry" />
        </mxCell>
        <mxCell id="2bwH-tMzGomMZhV91jcm-4" value="" style="shape=flexArrow;endArrow=classic;html=1;rounded=0;width=3.9080459770114944;endSize=3.9724137931034487;endWidth=9.906196327123794;fontSize=12;exitX=0.5;exitY=0;exitDx=0;exitDy=0;" parent="1" source="2bwH-tMzGomMZhV91jcm-1" edge="1">
          <mxGeometry width="50" height="50" relative="1" as="geometry">
            <mxPoint x="425" y="251" as="sourcePoint" />
            <mxPoint x="420" y="-190" as="targetPoint" />
          </mxGeometry>
        </mxCell>
        <mxCell id="2bwH-tMzGomMZhV91jcm-5" value="&lt;p data-pm-slice=&quot;0 0 []&quot;&gt;Plan de actuación en caso de emergencia:&lt;/p&gt;&lt;p&gt;&lt;/p&gt;&lt;p style=&quot;&quot;&gt;Identificación y clasificación de las emergencias&lt;/p&gt;&lt;p style=&quot;&quot;&gt;Procedimientos de actuación&lt;/p&gt;&lt;p style=&quot;&quot;&gt;&lt;span style=&quot;background-color: initial;&quot;&gt;Identificación y organización de las personas y equipos&lt;/span&gt;&lt;/p&gt;&lt;p style=&quot;&quot;&gt;Designación de las personas responsables&lt;/p&gt;" style="rounded=1;whiteSpace=wrap;html=1;" parent="1" vertex="1">
          <mxGeometry x="335" y="-390" width="170" height="200" as="geometry" />
        </mxCell>
        <mxCell id="2bwH-tMzGomMZhV91jcm-6" value="" style="shape=flexArrow;endArrow=classic;html=1;rounded=0;width=3.9080459770114944;endSize=3.9724137931034487;endWidth=9.906196327123794;fontSize=12;exitX=1;exitY=0.5;exitDx=0;exitDy=0;" parent="1" source="2bwH-tMzGomMZhV91jcm-1" edge="1">
          <mxGeometry width="50" height="50" relative="1" as="geometry">
            <mxPoint x="375" y="261" as="sourcePoint" />
            <mxPoint x="600" y="-100" as="targetPoint" />
            <Array as="points">
              <mxPoint x="510" y="280" />
              <mxPoint x="510" y="-100" />
            </Array>
          </mxGeometry>
        </mxCell>
        <mxCell id="2bwH-tMzGomMZhV91jcm-7" value="Jefe/a de emergencia&lt;br&gt;&lt;br&gt;Coordina el plan de emergencia" style="rounded=1;whiteSpace=wrap;html=1;" parent="1" vertex="1">
          <mxGeometry x="600" y="-130" width="157" height="60" as="geometry" />
        </mxCell>
        <mxCell id="2bwH-tMzGomMZhV91jcm-8" value="Jefe/a de intervención&lt;br&gt;&lt;br&gt;Coordina los equipos de emergencia" style="rounded=1;whiteSpace=wrap;html=1;" parent="1" vertex="1">
          <mxGeometry x="820" y="-130" width="157" height="60" as="geometry" />
        </mxCell>
        <mxCell id="2bwH-tMzGomMZhV91jcm-9" value="Equipo de primeros auxilios" style="rounded=1;whiteSpace=wrap;html=1;" parent="1" vertex="1">
          <mxGeometry x="1020" width="157" height="60" as="geometry" />
        </mxCell>
        <mxCell id="2bwH-tMzGomMZhV91jcm-10" value="Equipo de segunda intervención" style="rounded=1;whiteSpace=wrap;html=1;" parent="1" vertex="1">
          <mxGeometry x="1020" y="-90" width="157" height="60" as="geometry" />
        </mxCell>
        <mxCell id="2bwH-tMzGomMZhV91jcm-11" value="Equipo de primera intervención" style="rounded=1;whiteSpace=wrap;html=1;" parent="1" vertex="1">
          <mxGeometry x="1020" y="-180" width="157" height="60" as="geometry" />
        </mxCell>
        <mxCell id="2bwH-tMzGomMZhV91jcm-12" value="Equipo de alarma y evacuación" style="rounded=1;whiteSpace=wrap;html=1;" parent="1" vertex="1">
          <mxGeometry x="1020" y="-270" width="157" height="60" as="geometry" />
        </mxCell>
        <mxCell id="2bwH-tMzGomMZhV91jcm-13" value="Da la alarma, dirige la evacuación y controla a los evacuados en los puntos de reunión." style="rounded=1;whiteSpace=wrap;html=1;" parent="1" vertex="1">
          <mxGeometry x="1220" y="-270" width="157" height="60" as="geometry" />
        </mxCell>
        <mxCell id="2bwH-tMzGomMZhV91jcm-15" value="Actúa si la emergencia no es controlada por los EPI y apoya a la ayuda externa" style="rounded=1;whiteSpace=wrap;html=1;" parent="1" vertex="1">
          <mxGeometry x="1220" y="-180" width="157" height="60" as="geometry" />
        </mxCell>
        <mxCell id="2bwH-tMzGomMZhV91jcm-16" value="Acude al lugar donde se ha producido la emergencia para intentar controlarla" style="rounded=1;whiteSpace=wrap;html=1;" parent="1" vertex="1">
          <mxGeometry x="1220" y="-90" width="157" height="60" as="geometry" />
        </mxCell>
        <mxCell id="2bwH-tMzGomMZhV91jcm-17" value="Presta los primeros auxilios a las personas heridas y ayuda a evacuarlas" style="rounded=1;whiteSpace=wrap;html=1;" parent="1" vertex="1">
          <mxGeometry x="1220" width="157" height="60" as="geometry" />
        </mxCell>
        <mxCell id="2bwH-tMzGomMZhV91jcm-18" value="" style="shape=flexArrow;endArrow=classic;html=1;rounded=0;width=3.9080459770114944;endSize=3.9724137931034487;endWidth=9.906196327123794;fontSize=12;exitX=1;exitY=0.5;exitDx=0;exitDy=0;entryX=0;entryY=0.5;entryDx=0;entryDy=0;" parent="1" source="2bwH-tMzGomMZhV91jcm-7" target="2bwH-tMzGomMZhV91jcm-8" edge="1">
          <mxGeometry width="50" height="50" relative="1" as="geometry">
            <mxPoint x="820" y="120" as="sourcePoint" />
            <mxPoint x="745" y="9" as="targetPoint" />
          </mxGeometry>
        </mxCell>
        <mxCell id="2bwH-tMzGomMZhV91jcm-19" value="" style="shape=flexArrow;endArrow=classic;html=1;rounded=0;width=3.9080459770114944;endSize=3.9724137931034487;endWidth=9.906196327123794;fontSize=12;exitX=0.75;exitY=0;exitDx=0;exitDy=0;entryX=0;entryY=0.5;entryDx=0;entryDy=0;" parent="1" source="2bwH-tMzGomMZhV91jcm-8" target="2bwH-tMzGomMZhV91jcm-12" edge="1">
          <mxGeometry width="50" height="50" relative="1" as="geometry">
            <mxPoint x="977" y="-100.59" as="sourcePoint" />
            <mxPoint x="1040" y="-100.59" as="targetPoint" />
          </mxGeometry>
        </mxCell>
        <mxCell id="2bwH-tMzGomMZhV91jcm-20" value="" style="shape=flexArrow;endArrow=classic;html=1;rounded=0;width=3.9080459770114944;endSize=3.9724137931034487;endWidth=9.906196327123794;fontSize=12;exitX=1;exitY=0.25;exitDx=0;exitDy=0;entryX=0;entryY=0.5;entryDx=0;entryDy=0;" parent="1" source="2bwH-tMzGomMZhV91jcm-8" target="2bwH-tMzGomMZhV91jcm-11" edge="1">
          <mxGeometry width="50" height="50" relative="1" as="geometry">
            <mxPoint x="977" y="-110" as="sourcePoint" />
            <mxPoint x="1040" y="-110" as="targetPoint" />
          </mxGeometry>
        </mxCell>
        <mxCell id="2bwH-tMzGomMZhV91jcm-21" value="" style="shape=flexArrow;endArrow=classic;html=1;rounded=0;width=3.9080459770114944;endSize=3.9724137931034487;endWidth=9.906196327123794;fontSize=12;exitX=1;exitY=0.75;exitDx=0;exitDy=0;entryX=0;entryY=0.5;entryDx=0;entryDy=0;" parent="1" source="2bwH-tMzGomMZhV91jcm-8" target="2bwH-tMzGomMZhV91jcm-10" edge="1">
          <mxGeometry width="50" height="50" relative="1" as="geometry">
            <mxPoint x="787" y="-70" as="sourcePoint" />
            <mxPoint x="850" y="-70" as="targetPoint" />
          </mxGeometry>
        </mxCell>
        <mxCell id="2bwH-tMzGomMZhV91jcm-22" value="" style="shape=flexArrow;endArrow=classic;html=1;rounded=0;width=3.9080459770114944;endSize=3.9724137931034487;endWidth=9.906196327123794;fontSize=12;exitX=0.75;exitY=1;exitDx=0;exitDy=0;entryX=0;entryY=0.583;entryDx=0;entryDy=0;entryPerimeter=0;" parent="1" source="2bwH-tMzGomMZhV91jcm-8" target="2bwH-tMzGomMZhV91jcm-9" edge="1">
          <mxGeometry width="50" height="50" relative="1" as="geometry">
            <mxPoint x="797" y="-60" as="sourcePoint" />
            <mxPoint x="860" y="-60" as="targetPoint" />
          </mxGeometry>
        </mxCell>
        <mxCell id="2bwH-tMzGomMZhV91jcm-23" value="" style="shape=flexArrow;endArrow=classic;html=1;rounded=0;width=3.9080459770114944;endSize=3.9724137931034487;endWidth=9.906196327123794;fontSize=12;exitX=1;exitY=0.5;exitDx=0;exitDy=0;" parent="1" edge="1">
          <mxGeometry width="50" height="50" relative="1" as="geometry">
            <mxPoint x="1177" y="-240.59" as="sourcePoint" />
            <mxPoint x="1220" y="-240" as="targetPoint" />
          </mxGeometry>
        </mxCell>
        <mxCell id="2bwH-tMzGomMZhV91jcm-24" value="" style="shape=flexArrow;endArrow=classic;html=1;rounded=0;width=3.9080459770114944;endSize=3.9724137931034487;endWidth=9.906196327123794;fontSize=12;exitX=1;exitY=0.5;exitDx=0;exitDy=0;" parent="1" edge="1">
          <mxGeometry width="50" height="50" relative="1" as="geometry">
            <mxPoint x="1177" y="-150.3" as="sourcePoint" />
            <mxPoint x="1220" y="-149.70999999999998" as="targetPoint" />
          </mxGeometry>
        </mxCell>
        <mxCell id="2bwH-tMzGomMZhV91jcm-25" value="" style="shape=flexArrow;endArrow=classic;html=1;rounded=0;width=3.9080459770114944;endSize=3.9724137931034487;endWidth=9.906196327123794;fontSize=12;exitX=1;exitY=0.5;exitDx=0;exitDy=0;" parent="1" edge="1">
          <mxGeometry width="50" height="50" relative="1" as="geometry">
            <mxPoint x="1177" y="-60.30000000000001" as="sourcePoint" />
            <mxPoint x="1220" y="-59.71000000000001" as="targetPoint" />
          </mxGeometry>
        </mxCell>
        <mxCell id="2bwH-tMzGomMZhV91jcm-26" value="" style="shape=flexArrow;endArrow=classic;html=1;rounded=0;width=3.9080459770114944;endSize=3.9724137931034487;endWidth=9.906196327123794;fontSize=12;exitX=1;exitY=0.5;exitDx=0;exitDy=0;" parent="1" edge="1">
          <mxGeometry width="50" height="50" relative="1" as="geometry">
            <mxPoint x="1177" y="29.69999999999999" as="sourcePoint" />
            <mxPoint x="1220" y="30.289999999999992" as="targetPoint" />
          </mxGeometry>
        </mxCell>
      </root>
    </mxGraphModel>
  </diagram>
</mxfile>
